G04 #@! TF.GenerationSoftware,KiCad,Pcbnew,7.0.7*
G04 #@! TF.CreationDate,2023-08-23T14:54:37-06:00*
G04 #@! TF.ProjectId,seedlab-power,73656564-6c61-4622-9d70-6f7765722e6b,rev?*
G04 #@! TF.SameCoordinates,Original*
G04 #@! TF.FileFunction,Legend,Top*
G04 #@! TF.FilePolarity,Positive*
%FSLAX46Y46*%
G04 Gerber Fmt 4.6, Leading zero omitted, Abs format (unit mm)*
G04 Created by KiCad (PCBNEW 7.0.7) date 2023-08-23 14:54:37*
%MOMM*%
%LPD*%
G01*
G04 APERTURE LIST*
%ADD10C,0.150000*%
%ADD11C,0.120000*%
%ADD12C,0.100000*%
G04 APERTURE END LIST*
D10*
X64473333Y-64579580D02*
X64425714Y-64627200D01*
X64425714Y-64627200D02*
X64282857Y-64674819D01*
X64282857Y-64674819D02*
X64187619Y-64674819D01*
X64187619Y-64674819D02*
X64044762Y-64627200D01*
X64044762Y-64627200D02*
X63949524Y-64531961D01*
X63949524Y-64531961D02*
X63901905Y-64436723D01*
X63901905Y-64436723D02*
X63854286Y-64246247D01*
X63854286Y-64246247D02*
X63854286Y-64103390D01*
X63854286Y-64103390D02*
X63901905Y-63912914D01*
X63901905Y-63912914D02*
X63949524Y-63817676D01*
X63949524Y-63817676D02*
X64044762Y-63722438D01*
X64044762Y-63722438D02*
X64187619Y-63674819D01*
X64187619Y-63674819D02*
X64282857Y-63674819D01*
X64282857Y-63674819D02*
X64425714Y-63722438D01*
X64425714Y-63722438D02*
X64473333Y-63770057D01*
X65425714Y-64674819D02*
X64854286Y-64674819D01*
X65140000Y-64674819D02*
X65140000Y-63674819D01*
X65140000Y-63674819D02*
X65044762Y-63817676D01*
X65044762Y-63817676D02*
X64949524Y-63912914D01*
X64949524Y-63912914D02*
X64854286Y-63960533D01*
X64473333Y-69659580D02*
X64425714Y-69707200D01*
X64425714Y-69707200D02*
X64282857Y-69754819D01*
X64282857Y-69754819D02*
X64187619Y-69754819D01*
X64187619Y-69754819D02*
X64044762Y-69707200D01*
X64044762Y-69707200D02*
X63949524Y-69611961D01*
X63949524Y-69611961D02*
X63901905Y-69516723D01*
X63901905Y-69516723D02*
X63854286Y-69326247D01*
X63854286Y-69326247D02*
X63854286Y-69183390D01*
X63854286Y-69183390D02*
X63901905Y-68992914D01*
X63901905Y-68992914D02*
X63949524Y-68897676D01*
X63949524Y-68897676D02*
X64044762Y-68802438D01*
X64044762Y-68802438D02*
X64187619Y-68754819D01*
X64187619Y-68754819D02*
X64282857Y-68754819D01*
X64282857Y-68754819D02*
X64425714Y-68802438D01*
X64425714Y-68802438D02*
X64473333Y-68850057D01*
X64854286Y-68850057D02*
X64901905Y-68802438D01*
X64901905Y-68802438D02*
X64997143Y-68754819D01*
X64997143Y-68754819D02*
X65235238Y-68754819D01*
X65235238Y-68754819D02*
X65330476Y-68802438D01*
X65330476Y-68802438D02*
X65378095Y-68850057D01*
X65378095Y-68850057D02*
X65425714Y-68945295D01*
X65425714Y-68945295D02*
X65425714Y-69040533D01*
X65425714Y-69040533D02*
X65378095Y-69183390D01*
X65378095Y-69183390D02*
X64806667Y-69754819D01*
X64806667Y-69754819D02*
X65425714Y-69754819D01*
X44981905Y-46214819D02*
X44981905Y-45214819D01*
X44981905Y-45214819D02*
X45220000Y-45214819D01*
X45220000Y-45214819D02*
X45362857Y-45262438D01*
X45362857Y-45262438D02*
X45458095Y-45357676D01*
X45458095Y-45357676D02*
X45505714Y-45452914D01*
X45505714Y-45452914D02*
X45553333Y-45643390D01*
X45553333Y-45643390D02*
X45553333Y-45786247D01*
X45553333Y-45786247D02*
X45505714Y-45976723D01*
X45505714Y-45976723D02*
X45458095Y-46071961D01*
X45458095Y-46071961D02*
X45362857Y-46167200D01*
X45362857Y-46167200D02*
X45220000Y-46214819D01*
X45220000Y-46214819D02*
X44981905Y-46214819D01*
X46505714Y-46214819D02*
X45934286Y-46214819D01*
X46220000Y-46214819D02*
X46220000Y-45214819D01*
X46220000Y-45214819D02*
X46124762Y-45357676D01*
X46124762Y-45357676D02*
X46029524Y-45452914D01*
X46029524Y-45452914D02*
X45934286Y-45500533D01*
X80304819Y-55423333D02*
X81019104Y-55423333D01*
X81019104Y-55423333D02*
X81161961Y-55470952D01*
X81161961Y-55470952D02*
X81257200Y-55566190D01*
X81257200Y-55566190D02*
X81304819Y-55709047D01*
X81304819Y-55709047D02*
X81304819Y-55804285D01*
X81304819Y-54423333D02*
X81304819Y-54994761D01*
X81304819Y-54709047D02*
X80304819Y-54709047D01*
X80304819Y-54709047D02*
X80447676Y-54804285D01*
X80447676Y-54804285D02*
X80542914Y-54899523D01*
X80542914Y-54899523D02*
X80590533Y-54994761D01*
X52046666Y-44744819D02*
X52046666Y-45459104D01*
X52046666Y-45459104D02*
X51999047Y-45601961D01*
X51999047Y-45601961D02*
X51903809Y-45697200D01*
X51903809Y-45697200D02*
X51760952Y-45744819D01*
X51760952Y-45744819D02*
X51665714Y-45744819D01*
X52475238Y-44840057D02*
X52522857Y-44792438D01*
X52522857Y-44792438D02*
X52618095Y-44744819D01*
X52618095Y-44744819D02*
X52856190Y-44744819D01*
X52856190Y-44744819D02*
X52951428Y-44792438D01*
X52951428Y-44792438D02*
X52999047Y-44840057D01*
X52999047Y-44840057D02*
X53046666Y-44935295D01*
X53046666Y-44935295D02*
X53046666Y-45030533D01*
X53046666Y-45030533D02*
X52999047Y-45173390D01*
X52999047Y-45173390D02*
X52427619Y-45744819D01*
X52427619Y-45744819D02*
X53046666Y-45744819D01*
X61864761Y-77740057D02*
X61769523Y-77692438D01*
X61769523Y-77692438D02*
X61674285Y-77597200D01*
X61674285Y-77597200D02*
X61531428Y-77454342D01*
X61531428Y-77454342D02*
X61436190Y-77406723D01*
X61436190Y-77406723D02*
X61340952Y-77406723D01*
X61388571Y-77644819D02*
X61293333Y-77597200D01*
X61293333Y-77597200D02*
X61198095Y-77501961D01*
X61198095Y-77501961D02*
X61150476Y-77311485D01*
X61150476Y-77311485D02*
X61150476Y-76978152D01*
X61150476Y-76978152D02*
X61198095Y-76787676D01*
X61198095Y-76787676D02*
X61293333Y-76692438D01*
X61293333Y-76692438D02*
X61388571Y-76644819D01*
X61388571Y-76644819D02*
X61579047Y-76644819D01*
X61579047Y-76644819D02*
X61674285Y-76692438D01*
X61674285Y-76692438D02*
X61769523Y-76787676D01*
X61769523Y-76787676D02*
X61817142Y-76978152D01*
X61817142Y-76978152D02*
X61817142Y-77311485D01*
X61817142Y-77311485D02*
X61769523Y-77501961D01*
X61769523Y-77501961D02*
X61674285Y-77597200D01*
X61674285Y-77597200D02*
X61579047Y-77644819D01*
X61579047Y-77644819D02*
X61388571Y-77644819D01*
X62769523Y-77644819D02*
X62198095Y-77644819D01*
X62483809Y-77644819D02*
X62483809Y-76644819D01*
X62483809Y-76644819D02*
X62388571Y-76787676D01*
X62388571Y-76787676D02*
X62293333Y-76882914D01*
X62293333Y-76882914D02*
X62198095Y-76930533D01*
X24380057Y-58515238D02*
X24332438Y-58610476D01*
X24332438Y-58610476D02*
X24237200Y-58705714D01*
X24237200Y-58705714D02*
X24094342Y-58848571D01*
X24094342Y-58848571D02*
X24046723Y-58943809D01*
X24046723Y-58943809D02*
X24046723Y-59039047D01*
X24284819Y-58991428D02*
X24237200Y-59086666D01*
X24237200Y-59086666D02*
X24141961Y-59181904D01*
X24141961Y-59181904D02*
X23951485Y-59229523D01*
X23951485Y-59229523D02*
X23618152Y-59229523D01*
X23618152Y-59229523D02*
X23427676Y-59181904D01*
X23427676Y-59181904D02*
X23332438Y-59086666D01*
X23332438Y-59086666D02*
X23284819Y-58991428D01*
X23284819Y-58991428D02*
X23284819Y-58800952D01*
X23284819Y-58800952D02*
X23332438Y-58705714D01*
X23332438Y-58705714D02*
X23427676Y-58610476D01*
X23427676Y-58610476D02*
X23618152Y-58562857D01*
X23618152Y-58562857D02*
X23951485Y-58562857D01*
X23951485Y-58562857D02*
X24141961Y-58610476D01*
X24141961Y-58610476D02*
X24237200Y-58705714D01*
X24237200Y-58705714D02*
X24284819Y-58800952D01*
X24284819Y-58800952D02*
X24284819Y-58991428D01*
X23380057Y-58181904D02*
X23332438Y-58134285D01*
X23332438Y-58134285D02*
X23284819Y-58039047D01*
X23284819Y-58039047D02*
X23284819Y-57800952D01*
X23284819Y-57800952D02*
X23332438Y-57705714D01*
X23332438Y-57705714D02*
X23380057Y-57658095D01*
X23380057Y-57658095D02*
X23475295Y-57610476D01*
X23475295Y-57610476D02*
X23570533Y-57610476D01*
X23570533Y-57610476D02*
X23713390Y-57658095D01*
X23713390Y-57658095D02*
X24284819Y-58229523D01*
X24284819Y-58229523D02*
X24284819Y-57610476D01*
X36793333Y-67214819D02*
X36460000Y-66738628D01*
X36221905Y-67214819D02*
X36221905Y-66214819D01*
X36221905Y-66214819D02*
X36602857Y-66214819D01*
X36602857Y-66214819D02*
X36698095Y-66262438D01*
X36698095Y-66262438D02*
X36745714Y-66310057D01*
X36745714Y-66310057D02*
X36793333Y-66405295D01*
X36793333Y-66405295D02*
X36793333Y-66548152D01*
X36793333Y-66548152D02*
X36745714Y-66643390D01*
X36745714Y-66643390D02*
X36698095Y-66691009D01*
X36698095Y-66691009D02*
X36602857Y-66738628D01*
X36602857Y-66738628D02*
X36221905Y-66738628D01*
X37745714Y-67214819D02*
X37174286Y-67214819D01*
X37460000Y-67214819D02*
X37460000Y-66214819D01*
X37460000Y-66214819D02*
X37364762Y-66357676D01*
X37364762Y-66357676D02*
X37269524Y-66452914D01*
X37269524Y-66452914D02*
X37174286Y-66500533D01*
X49493333Y-74834819D02*
X49160000Y-74358628D01*
X48921905Y-74834819D02*
X48921905Y-73834819D01*
X48921905Y-73834819D02*
X49302857Y-73834819D01*
X49302857Y-73834819D02*
X49398095Y-73882438D01*
X49398095Y-73882438D02*
X49445714Y-73930057D01*
X49445714Y-73930057D02*
X49493333Y-74025295D01*
X49493333Y-74025295D02*
X49493333Y-74168152D01*
X49493333Y-74168152D02*
X49445714Y-74263390D01*
X49445714Y-74263390D02*
X49398095Y-74311009D01*
X49398095Y-74311009D02*
X49302857Y-74358628D01*
X49302857Y-74358628D02*
X48921905Y-74358628D01*
X49874286Y-73930057D02*
X49921905Y-73882438D01*
X49921905Y-73882438D02*
X50017143Y-73834819D01*
X50017143Y-73834819D02*
X50255238Y-73834819D01*
X50255238Y-73834819D02*
X50350476Y-73882438D01*
X50350476Y-73882438D02*
X50398095Y-73930057D01*
X50398095Y-73930057D02*
X50445714Y-74025295D01*
X50445714Y-74025295D02*
X50445714Y-74120533D01*
X50445714Y-74120533D02*
X50398095Y-74263390D01*
X50398095Y-74263390D02*
X49826667Y-74834819D01*
X49826667Y-74834819D02*
X50445714Y-74834819D01*
X36793333Y-74834819D02*
X36460000Y-74358628D01*
X36221905Y-74834819D02*
X36221905Y-73834819D01*
X36221905Y-73834819D02*
X36602857Y-73834819D01*
X36602857Y-73834819D02*
X36698095Y-73882438D01*
X36698095Y-73882438D02*
X36745714Y-73930057D01*
X36745714Y-73930057D02*
X36793333Y-74025295D01*
X36793333Y-74025295D02*
X36793333Y-74168152D01*
X36793333Y-74168152D02*
X36745714Y-74263390D01*
X36745714Y-74263390D02*
X36698095Y-74311009D01*
X36698095Y-74311009D02*
X36602857Y-74358628D01*
X36602857Y-74358628D02*
X36221905Y-74358628D01*
X37126667Y-73834819D02*
X37745714Y-73834819D01*
X37745714Y-73834819D02*
X37412381Y-74215771D01*
X37412381Y-74215771D02*
X37555238Y-74215771D01*
X37555238Y-74215771D02*
X37650476Y-74263390D01*
X37650476Y-74263390D02*
X37698095Y-74311009D01*
X37698095Y-74311009D02*
X37745714Y-74406247D01*
X37745714Y-74406247D02*
X37745714Y-74644342D01*
X37745714Y-74644342D02*
X37698095Y-74739580D01*
X37698095Y-74739580D02*
X37650476Y-74787200D01*
X37650476Y-74787200D02*
X37555238Y-74834819D01*
X37555238Y-74834819D02*
X37269524Y-74834819D01*
X37269524Y-74834819D02*
X37174286Y-74787200D01*
X37174286Y-74787200D02*
X37126667Y-74739580D01*
X36793333Y-79914819D02*
X36460000Y-79438628D01*
X36221905Y-79914819D02*
X36221905Y-78914819D01*
X36221905Y-78914819D02*
X36602857Y-78914819D01*
X36602857Y-78914819D02*
X36698095Y-78962438D01*
X36698095Y-78962438D02*
X36745714Y-79010057D01*
X36745714Y-79010057D02*
X36793333Y-79105295D01*
X36793333Y-79105295D02*
X36793333Y-79248152D01*
X36793333Y-79248152D02*
X36745714Y-79343390D01*
X36745714Y-79343390D02*
X36698095Y-79391009D01*
X36698095Y-79391009D02*
X36602857Y-79438628D01*
X36602857Y-79438628D02*
X36221905Y-79438628D01*
X37650476Y-79248152D02*
X37650476Y-79914819D01*
X37412381Y-78867200D02*
X37174286Y-79581485D01*
X37174286Y-79581485D02*
X37793333Y-79581485D01*
X49493333Y-79914819D02*
X49160000Y-79438628D01*
X48921905Y-79914819D02*
X48921905Y-78914819D01*
X48921905Y-78914819D02*
X49302857Y-78914819D01*
X49302857Y-78914819D02*
X49398095Y-78962438D01*
X49398095Y-78962438D02*
X49445714Y-79010057D01*
X49445714Y-79010057D02*
X49493333Y-79105295D01*
X49493333Y-79105295D02*
X49493333Y-79248152D01*
X49493333Y-79248152D02*
X49445714Y-79343390D01*
X49445714Y-79343390D02*
X49398095Y-79391009D01*
X49398095Y-79391009D02*
X49302857Y-79438628D01*
X49302857Y-79438628D02*
X48921905Y-79438628D01*
X50398095Y-78914819D02*
X49921905Y-78914819D01*
X49921905Y-78914819D02*
X49874286Y-79391009D01*
X49874286Y-79391009D02*
X49921905Y-79343390D01*
X49921905Y-79343390D02*
X50017143Y-79295771D01*
X50017143Y-79295771D02*
X50255238Y-79295771D01*
X50255238Y-79295771D02*
X50350476Y-79343390D01*
X50350476Y-79343390D02*
X50398095Y-79391009D01*
X50398095Y-79391009D02*
X50445714Y-79486247D01*
X50445714Y-79486247D02*
X50445714Y-79724342D01*
X50445714Y-79724342D02*
X50398095Y-79819580D01*
X50398095Y-79819580D02*
X50350476Y-79867200D01*
X50350476Y-79867200D02*
X50255238Y-79914819D01*
X50255238Y-79914819D02*
X50017143Y-79914819D01*
X50017143Y-79914819D02*
X49921905Y-79867200D01*
X49921905Y-79867200D02*
X49874286Y-79819580D01*
X70607200Y-74613332D02*
X70654819Y-74470475D01*
X70654819Y-74470475D02*
X70654819Y-74232380D01*
X70654819Y-74232380D02*
X70607200Y-74137142D01*
X70607200Y-74137142D02*
X70559580Y-74089523D01*
X70559580Y-74089523D02*
X70464342Y-74041904D01*
X70464342Y-74041904D02*
X70369104Y-74041904D01*
X70369104Y-74041904D02*
X70273866Y-74089523D01*
X70273866Y-74089523D02*
X70226247Y-74137142D01*
X70226247Y-74137142D02*
X70178628Y-74232380D01*
X70178628Y-74232380D02*
X70131009Y-74422856D01*
X70131009Y-74422856D02*
X70083390Y-74518094D01*
X70083390Y-74518094D02*
X70035771Y-74565713D01*
X70035771Y-74565713D02*
X69940533Y-74613332D01*
X69940533Y-74613332D02*
X69845295Y-74613332D01*
X69845295Y-74613332D02*
X69750057Y-74565713D01*
X69750057Y-74565713D02*
X69702438Y-74518094D01*
X69702438Y-74518094D02*
X69654819Y-74422856D01*
X69654819Y-74422856D02*
X69654819Y-74184761D01*
X69654819Y-74184761D02*
X69702438Y-74041904D01*
X69654819Y-73708570D02*
X70654819Y-73470475D01*
X70654819Y-73470475D02*
X69940533Y-73279999D01*
X69940533Y-73279999D02*
X70654819Y-73089523D01*
X70654819Y-73089523D02*
X69654819Y-72851428D01*
X70654819Y-71946666D02*
X70654819Y-72518094D01*
X70654819Y-72232380D02*
X69654819Y-72232380D01*
X69654819Y-72232380D02*
X69797676Y-72327618D01*
X69797676Y-72327618D02*
X69892914Y-72422856D01*
X69892914Y-72422856D02*
X69940533Y-72518094D01*
X52480595Y-65269819D02*
X52480595Y-66079342D01*
X52480595Y-66079342D02*
X52528214Y-66174580D01*
X52528214Y-66174580D02*
X52575833Y-66222200D01*
X52575833Y-66222200D02*
X52671071Y-66269819D01*
X52671071Y-66269819D02*
X52861547Y-66269819D01*
X52861547Y-66269819D02*
X52956785Y-66222200D01*
X52956785Y-66222200D02*
X53004404Y-66174580D01*
X53004404Y-66174580D02*
X53052023Y-66079342D01*
X53052023Y-66079342D02*
X53052023Y-65269819D01*
X54052023Y-66269819D02*
X53480595Y-66269819D01*
X53766309Y-66269819D02*
X53766309Y-65269819D01*
X53766309Y-65269819D02*
X53671071Y-65412676D01*
X53671071Y-65412676D02*
X53575833Y-65507914D01*
X53575833Y-65507914D02*
X53480595Y-65555533D01*
D11*
X64037936Y-65130000D02*
X65242064Y-65130000D01*
X64037936Y-66950000D02*
X65242064Y-66950000D01*
X64037936Y-70210000D02*
X65242064Y-70210000D01*
X64037936Y-72030000D02*
X65242064Y-72030000D01*
X50720000Y-46760000D02*
X50720000Y-49760000D01*
X40767000Y-46760000D02*
X50720000Y-46760000D01*
X50720000Y-49760000D02*
X40720000Y-49760000D01*
X40720000Y-49760000D02*
X40720000Y-46736000D01*
D12*
X46520100Y-48260000D02*
X45110400Y-49669700D01*
X45110400Y-46850300D01*
X46520100Y-48260000D01*
G36*
X46520100Y-48260000D02*
G01*
X45110400Y-49669700D01*
X45110400Y-46850300D01*
X46520100Y-48260000D01*
G37*
D11*
X72550000Y-63190000D02*
X72550000Y-46990000D01*
X79850000Y-63190000D02*
X72550000Y-63190000D01*
X72550000Y-58590000D02*
X79850000Y-58590000D01*
X72550000Y-46990000D02*
X79850000Y-46990000D01*
X79850000Y-46990000D02*
X79850000Y-63190000D01*
X25030000Y-36990000D02*
X79730000Y-36990000D01*
X25030000Y-44290000D02*
X25030000Y-36990000D01*
X29630000Y-36990000D02*
X29630000Y-44290000D01*
X79730000Y-36990000D02*
X79730000Y-44290000D01*
X79730000Y-44290000D02*
X25030000Y-44290000D01*
X62720000Y-78110000D02*
X60560000Y-78110000D01*
X62720000Y-78110000D02*
X62720000Y-79040000D01*
X62720000Y-81270000D02*
X61260000Y-81270000D01*
X62720000Y-81270000D02*
X62720000Y-80340000D01*
X25280000Y-61370000D02*
X27090000Y-61370000D01*
X27090000Y-61370000D02*
X27090000Y-66495000D01*
X33870000Y-61370000D02*
X33870000Y-62470000D01*
X35680000Y-61370000D02*
X33870000Y-61370000D01*
X25280000Y-59870000D02*
X25280000Y-61370000D01*
X35680000Y-59870000D02*
X35680000Y-61370000D01*
X36357936Y-67670000D02*
X37562064Y-67670000D01*
X36357936Y-69490000D02*
X37562064Y-69490000D01*
X49057936Y-75290000D02*
X50262064Y-75290000D01*
X49057936Y-77110000D02*
X50262064Y-77110000D01*
X36357936Y-75290000D02*
X37562064Y-75290000D01*
X36357936Y-77110000D02*
X37562064Y-77110000D01*
X36357936Y-80370000D02*
X37562064Y-80370000D01*
X36357936Y-82190000D02*
X37562064Y-82190000D01*
X49057936Y-80370000D02*
X50262064Y-80370000D01*
X49057936Y-82190000D02*
X50262064Y-82190000D01*
X81200000Y-64780000D02*
X81200000Y-81780000D01*
X71200000Y-64780000D02*
X81200000Y-64780000D01*
X81200000Y-70930000D02*
X71200000Y-70930000D01*
X81200000Y-81780000D02*
X71200000Y-81780000D01*
X71200000Y-81780000D02*
X71200000Y-64780000D01*
X53242500Y-66655000D02*
X49792500Y-66655000D01*
X53242500Y-66655000D02*
X55192500Y-66655000D01*
X53242500Y-71775000D02*
X51292500Y-71775000D01*
X53242500Y-71775000D02*
X55192500Y-71775000D01*
M02*
